<svg width="292" height="50" viewBox="0 0 292 50" fill="none" xmlns="http://www.w3.org/2000/svg">
<rect x="0.5" y="4.5" width="290.155" height="41" fill="#1C1C21"/>
<g filter="url(#filter0_f_94713_2248)">
<path d="M160.513 37.6331C161.013 37.0196 160.562 36.1398 159.77 36.1268C149.664 35.9604 141.212 36.1472 130.758 36.7832C129.967 36.8314 129.555 37.7311 130.083 38.3217C133.746 42.4201 139.074 45 145.004 45C151.26 45 156.845 42.1291 160.513 37.6331Z" stroke="#4C4CFF" stroke-linecap="round" stroke-linejoin="round"/>
<path d="M127.643 15.0579C127.252 15.7378 127.827 16.5294 128.606 16.436C140.173 15.048 148.698 14.6341 160.788 15.3703C161.575 15.4182 162.104 14.5873 161.668 13.9313C158.083 8.54757 151.958 5 145.004 5C137.576 5 131.093 9.04797 127.643 15.0579Z" stroke="#4C4CFF" stroke-linecap="round" stroke-linejoin="round"/>
</g>
<g filter="url(#filter1_f_94713_2248)">
<path d="M160.513 37.6331C161.013 37.0196 160.562 36.1398 159.77 36.1268C149.664 35.9604 141.212 36.1472 130.758 36.7832C129.967 36.8314 129.555 37.7311 130.083 38.3217C133.746 42.4201 139.074 45 145.004 45C151.26 45 156.845 42.1291 160.513 37.6331Z" stroke="#4C4CFF" stroke-linecap="round" stroke-linejoin="round"/>
<path d="M127.643 15.0579C127.252 15.7378 127.827 16.5294 128.606 16.436C140.173 15.048 148.698 14.6341 160.788 15.3703C161.575 15.4182 162.104 14.5873 161.668 13.9313C158.083 8.54757 151.958 5 145.004 5C137.576 5 131.093 9.04797 127.643 15.0579Z" stroke="#4C4CFF" stroke-linecap="round" stroke-linejoin="round"/>
</g>
<path d="M160.513 37.6331C161.013 37.0196 160.562 36.1398 159.77 36.1268C149.664 35.9604 141.212 36.1472 130.758 36.7832C129.967 36.8314 129.555 37.7311 130.083 38.3217C133.746 42.4201 139.074 45 145.004 45C151.26 45 156.845 42.1291 160.513 37.6331Z" stroke="#4C4CFF" stroke-linecap="round" stroke-linejoin="round"/>
<path d="M127.643 15.0579C127.252 15.7378 127.827 16.5294 128.606 16.436C140.173 15.048 148.698 14.6341 160.788 15.3703C161.575 15.4182 162.104 14.5873 161.668 13.9313C158.083 8.54757 151.958 5 145.004 5C137.576 5 131.093 9.04797 127.643 15.0579Z" stroke="#4C4CFF" stroke-linecap="round" stroke-linejoin="round"/>
<path d="M160.513 37.6331C161.013 37.0196 160.562 36.1398 159.77 36.1268C149.664 35.9604 141.212 36.1472 130.758 36.7832C129.967 36.8314 129.555 37.7311 130.083 38.3217C133.746 42.4201 139.074 45 145.004 45C151.26 45 156.845 42.1291 160.513 37.6331Z" stroke="white" stroke-width="0.5" stroke-linecap="round" stroke-linejoin="round"/>
<path d="M127.643 15.0579C127.252 15.7378 127.827 16.5294 128.606 16.436C140.173 15.048 148.698 14.6341 160.788 15.3703C161.575 15.4182 162.104 14.5873 161.668 13.9313C158.083 8.54757 151.958 5 145.004 5C137.576 5 131.093 9.04797 127.643 15.0579Z" stroke="white" stroke-width="0.5" stroke-linecap="round" stroke-linejoin="round"/>
<g filter="url(#filter2_f_94713_2248)">
<path d="M164.859 27.4656C164.988 26.4133 164.172 25.5115 163.115 25.4264C150.235 24.3883 140.184 24.2251 126.89 24.9245C125.831 24.9802 124.99 25.8596 125.089 26.9156C125.23 28.4145 125.537 29.8654 125.991 31.2496C126.253 32.0473 127.032 32.5408 127.871 32.5118C140.383 32.0783 150.06 32.0468 162.196 32.3747C163.035 32.3973 163.811 31.8976 164.066 31.0975C164.439 29.9298 164.707 28.7155 164.859 27.4656Z" stroke="#E33CD5" stroke-linecap="round" stroke-linejoin="round"/>
</g>
<g filter="url(#filter3_f_94713_2248)">
<path d="M164.859 27.4656C164.988 26.4133 164.172 25.5115 163.115 25.4264C150.235 24.3883 140.184 24.2251 126.89 24.9245C125.831 24.9802 124.99 25.8596 125.089 26.9156C125.23 28.4145 125.537 29.8654 125.991 31.2496C126.253 32.0473 127.032 32.5408 127.871 32.5118C140.383 32.0783 150.06 32.0468 162.196 32.3747C163.035 32.3973 163.811 31.8976 164.066 31.0975C164.439 29.9298 164.707 28.7155 164.859 27.4656Z" stroke="#E33CD5" stroke-linecap="round" stroke-linejoin="round"/>
</g>
<path d="M164.859 27.4656C164.988 26.4133 164.172 25.5115 163.115 25.4264C150.235 24.3883 140.184 24.2251 126.89 24.9245C125.831 24.9802 124.99 25.8596 125.089 26.9156C125.23 28.4145 125.537 29.8654 125.991 31.2496C126.253 32.0473 127.032 32.5408 127.871 32.5118C140.383 32.0783 150.06 32.0468 162.196 32.3747C163.035 32.3973 163.811 31.8976 164.066 31.0975C164.439 29.9298 164.707 28.7155 164.859 27.4656Z" stroke="#E33CD5" stroke-linecap="round" stroke-linejoin="round"/>
<path d="M164.859 27.4656C164.988 26.4133 164.172 25.5115 163.115 25.4264C150.235 24.3883 140.184 24.2251 126.89 24.9245C125.831 24.9802 124.99 25.8596 125.089 26.9156C125.23 28.4145 125.537 29.8654 125.991 31.2496C126.253 32.0473 127.032 32.5408 127.871 32.5118C140.383 32.0783 150.06 32.0468 162.196 32.3747C163.035 32.3973 163.811 31.8976 164.066 31.0975C164.439 29.9298 164.707 28.7155 164.859 27.4656Z" stroke="white" stroke-width="0.5" stroke-linecap="round" stroke-linejoin="round"/>
<g filter="url(#filter4_f_94713_2248)">
<path d="M125 20.5C127.667 18.5 130.333 18.5 133 20.5C135.667 22.5 138.333 22.5 141 20.5C143.667 18.5 146.333 18.5 149 20.5C151.667 22.5 154.333 22.5 157 20.5C159.667 18.5 162.333 18.5 165 20.5" stroke="#00CCCC" stroke-linecap="round" stroke-linejoin="round"/>
</g>
<g filter="url(#filter5_f_94713_2248)">
<path d="M125 20.5C127.667 18.5 130.333 18.5 133 20.5C135.667 22.5 138.333 22.5 141 20.5C143.667 18.5 146.333 18.5 149 20.5C151.667 22.5 154.333 22.5 157 20.5C159.667 18.5 162.333 18.5 165 20.5" stroke="#00CCCC" stroke-linecap="round" stroke-linejoin="round"/>
</g>
<path d="M125 20.5C127.667 18.5 130.333 18.5 133 20.5C135.667 22.5 138.333 22.5 141 20.5C143.667 18.5 146.333 18.5 149 20.5C151.667 22.5 154.333 22.5 157 20.5C159.667 18.5 162.333 18.5 165 20.5" stroke="#00CCCC" stroke-linecap="round" stroke-linejoin="round"/>
<path d="M125 20.5C127.667 18.5 130.333 18.5 133 20.5C135.667 22.5 138.333 22.5 141 20.5C143.667 18.5 146.333 18.5 149 20.5C151.667 22.5 154.333 22.5 157 20.5C159.667 18.5 162.333 18.5 165 20.5" stroke="white" stroke-width="0.5" stroke-linecap="round" stroke-linejoin="round"/>
<g filter="url(#filter6_f_94713_2248)">
<ellipse cx="1" cy="0.75" rx="1" ry="0.75" transform="matrix(0.885492 0.464655 0.464655 -0.885492 137 40.1807)" stroke="#4C4CFF"/>
<ellipse cx="153.708" cy="11.3542" rx="1.5" ry="1" transform="rotate(15 153.708 11.3542)" stroke="#4C4CFF"/>
<ellipse cx="1" cy="0.75" rx="1" ry="0.75" transform="matrix(0.965926 -0.258819 -0.258819 -0.965926 150.388 40.9666)" stroke="#4C4CFF"/>
<ellipse cx="143.5" cy="12" rx="1.5" ry="1" transform="rotate(180 143.5 12)" stroke="#4C4CFF"/>
<ellipse cx="147.708" cy="8.35415" rx="1.5" ry="1" transform="rotate(15 147.708 8.35415)" stroke="#4C4CFF"/>
<ellipse cx="1" cy="0.75" rx="1" ry="0.75" transform="matrix(1 0 0 -1 144 42.5)" stroke="#4C4CFF"/>
<ellipse cx="136.793" cy="10.5826" rx="1.5" ry="1" transform="rotate(-27.6879 136.793 10.5826)" stroke="#4C4CFF"/>
</g>
<g filter="url(#filter7_f_94713_2248)">
<ellipse cx="1" cy="0.75" rx="1" ry="0.75" transform="matrix(0.885492 0.464655 0.464655 -0.885492 137 40.1807)" stroke="#4C4CFF"/>
<ellipse cx="153.708" cy="11.3542" rx="1.5" ry="1" transform="rotate(15 153.708 11.3542)" stroke="#4C4CFF"/>
<ellipse cx="1" cy="0.75" rx="1" ry="0.75" transform="matrix(0.965926 -0.258819 -0.258819 -0.965926 150.388 40.9666)" stroke="#4C4CFF"/>
<ellipse cx="143.5" cy="12" rx="1.5" ry="1" transform="rotate(180 143.5 12)" stroke="#4C4CFF"/>
<ellipse cx="147.708" cy="8.35415" rx="1.5" ry="1" transform="rotate(15 147.708 8.35415)" stroke="#4C4CFF"/>
<ellipse cx="1" cy="0.75" rx="1" ry="0.75" transform="matrix(1 0 0 -1 144 42.5)" stroke="#4C4CFF"/>
<ellipse cx="136.793" cy="10.5826" rx="1.5" ry="1" transform="rotate(-27.6879 136.793 10.5826)" stroke="#4C4CFF"/>
</g>
<ellipse cx="1" cy="0.75" rx="1" ry="0.75" transform="matrix(0.885492 0.464655 0.464655 -0.885492 137 40.1807)" stroke="#4C4CFF"/>
<ellipse cx="153.708" cy="11.3542" rx="1.5" ry="1" transform="rotate(15 153.708 11.3542)" stroke="#4C4CFF"/>
<ellipse cx="1" cy="0.75" rx="1" ry="0.75" transform="matrix(0.965926 -0.258819 -0.258819 -0.965926 150.388 40.9666)" stroke="#4C4CFF"/>
<ellipse cx="143.5" cy="12" rx="1.5" ry="1" transform="rotate(180 143.5 12)" stroke="#4C4CFF"/>
<ellipse cx="147.708" cy="8.35415" rx="1.5" ry="1" transform="rotate(15 147.708 8.35415)" stroke="#4C4CFF"/>
<ellipse cx="1" cy="0.75" rx="1" ry="0.75" transform="matrix(1 0 0 -1 144 42.5)" stroke="#4C4CFF"/>
<ellipse cx="136.793" cy="10.5826" rx="1.5" ry="1" transform="rotate(-27.6879 136.793 10.5826)" stroke="#4C4CFF"/>
<ellipse cx="1" cy="0.75" rx="1" ry="0.75" transform="matrix(0.885492 0.464655 0.464655 -0.885492 137 40.1807)" stroke="white" stroke-width="0.5"/>
<ellipse cx="153.708" cy="11.3542" rx="1.5" ry="1" transform="rotate(15 153.708 11.3542)" stroke="white" stroke-width="0.5"/>
<ellipse cx="1" cy="0.75" rx="1" ry="0.75" transform="matrix(0.965926 -0.258819 -0.258819 -0.965926 150.388 40.9666)" stroke="white" stroke-width="0.5"/>
<ellipse cx="143.5" cy="12" rx="1.5" ry="1" transform="rotate(180 143.5 12)" stroke="white" stroke-width="0.5"/>
<ellipse cx="147.708" cy="8.35415" rx="1.5" ry="1" transform="rotate(15 147.708 8.35415)" stroke="white" stroke-width="0.5"/>
<ellipse cx="1" cy="0.75" rx="1" ry="0.75" transform="matrix(1 0 0 -1 144 42.5)" stroke="white" stroke-width="0.5"/>
<ellipse cx="136.793" cy="10.5826" rx="1.5" ry="1" transform="rotate(-27.6879 136.793 10.5826)" stroke="white" stroke-width="0.5"/>
<path d="M3.8 25.544C2.968 25.544 2.29067 25.304 1.768 24.824C1.256 24.3333 1 23.672 1 22.84C1 21.7413 1.432 20.9467 2.296 20.456C2.712 20.2213 3.21333 20.104 3.8 20.104H15.128V22.2H4.328C3.74133 22.2 3.448 22.424 3.448 22.872C3.448 23.32 3.74133 23.544 4.328 23.544L12.808 23.56C13.64 23.56 14.312 23.8053 14.824 24.296C15.3467 24.7867 15.608 25.448 15.608 26.28C15.608 27.4 15.176 28.1947 14.312 28.664C13.9067 28.888 13.4053 29 12.808 29H1V26.904L12.28 26.92C12.8667 26.92 13.16 26.6907 13.16 26.232C13.16 25.784 12.8667 25.56 12.28 25.56L3.8 25.544Z" fill="white"/>
<path d="M30.425 29H22.361C21.4223 29 20.745 28.7867 20.329 28.36C20.0623 28.0827 19.8863 27.768 19.801 27.416C19.737 27.1813 19.705 26.8187 19.705 26.328V22.2H18.105V20.104H19.705V16.552H22.377V20.104H30.425V22.2H22.377V25.672C22.377 26.1627 22.489 26.4987 22.713 26.68C22.8943 26.8293 23.1983 26.904 23.625 26.904H30.425V29Z" fill="white"/>
<path d="M37.8809 26.904H47.1769V29H37.5289C36.1422 29 35.0809 28.6107 34.3449 27.832C33.6195 27.0427 33.2569 25.9493 33.2569 24.552C33.2569 23.1547 33.6195 22.0667 34.3449 21.288C35.0809 20.4987 36.1422 20.104 37.5289 20.104H47.1769V22.2H37.8809C37.3902 22.2 36.9849 22.3387 36.6649 22.616C36.5155 22.744 36.3235 23.0427 36.0889 23.512L36.0729 23.544H47.1769V25.544H36.0729L36.0889 25.592C36.3022 26.0507 36.4942 26.3493 36.6649 26.488C36.9849 26.7653 37.3902 26.904 37.8809 26.904Z" fill="white"/>
<path d="M54.4002 29C52.3522 29 51.0349 28.168 50.4482 26.504C50.2243 25.864 50.1122 25.192 50.1122 24.488V20.072H53.0243V24.216C53.0243 24.9093 53.2376 25.4533 53.6642 25.848C54.0056 26.168 54.4963 26.328 55.1362 26.328H63.5042V29H54.4002Z" fill="white"/>
<path d="M70.8177 29C68.7698 29 67.4524 28.168 66.8657 26.504C66.6417 25.864 66.5297 25.192 66.5297 24.488V20.072H69.4417V24.216C69.4417 24.9093 69.6551 25.4533 70.0817 25.848C70.4231 26.168 70.9137 26.328 71.5537 26.328H79.9218V29H70.8177Z" fill="white"/>
<path d="M83.5553 22.2V20.104H94.2272C95.2832 20.104 96.1206 20.3813 96.7393 20.936C97.1233 21.2773 97.3846 21.6773 97.5233 22.136C97.6193 22.4773 97.6673 22.9573 97.6673 23.576V29H85.7473C84.8726 29 84.1846 28.76 83.6833 28.28C83.1819 27.8 82.9313 27.128 82.9313 26.264C82.9313 25.4 83.1819 24.7333 83.6833 24.264C84.1953 23.784 84.8833 23.544 85.7473 23.544H94.9953V23.464C94.9953 22.8027 94.7499 22.4027 94.2593 22.264C94.1099 22.2213 93.8806 22.2 93.5713 22.2H83.5553ZM94.9953 26.904V25.544H86.4512C85.8859 25.544 85.6032 25.7733 85.6032 26.232C85.6032 26.68 85.8859 26.904 86.4512 26.904H94.9953Z" fill="white"/>
<path d="M111.182 23.24C111.182 22.9413 111.087 22.7067 110.895 22.536C110.756 22.408 110.543 22.344 110.255 22.344L103.614 22.328V29H100.942V20.104L110.702 20.072C111.748 20.072 112.548 20.3653 113.103 20.952C113.604 21.4853 113.854 22.0987 113.854 22.792V23.72H111.182V23.24Z" fill="white"/>
<path d="M186.232 30H175V17.552H177.672V21.104H186.232C188.045 21.104 189.299 21.776 189.992 23.12C190.333 23.7813 190.504 24.592 190.504 25.552C190.504 27.4827 189.843 28.7947 188.52 29.488C187.869 29.8293 187.107 30 186.232 30ZM185.88 23.328H177.672V27.776H185.88C186.499 27.776 186.968 27.552 187.288 27.104C187.565 26.72 187.704 26.2027 187.704 25.552C187.704 24.9013 187.565 24.384 187.288 24C186.968 23.552 186.499 23.328 185.88 23.328Z" fill="white"/>
<path d="M195.219 26.832C195.219 27.4613 195.528 27.776 196.147 27.776H204.243V21.104H206.915V30H195.715C194.627 30 193.827 29.7173 193.315 29.152C192.803 28.5867 192.547 27.9627 192.547 27.28V21.104H195.219V26.832Z" fill="white"/>
<path d="M219.756 24.24C219.756 23.9413 219.66 23.7067 219.468 23.536C219.329 23.408 219.116 23.344 218.828 23.344L212.188 23.328V30H209.516V21.104L219.276 21.072C220.321 21.072 221.121 21.3653 221.676 21.952C222.177 22.4853 222.428 23.0987 222.428 23.792V24.72H219.756V24.24Z" fill="white"/>
<path d="M241.311 21.12V30.256C241.311 31.3013 241.007 32.1173 240.399 32.704C239.791 33.2907 239.012 33.584 238.063 33.584L225.695 33.552V31.472L237.583 31.488C237.999 31.488 238.287 31.3653 238.447 31.12C238.575 30.928 238.639 30.6133 238.639 30.176V30H228.991C227.604 30 226.543 29.6107 225.807 28.832C225.081 28.0427 224.719 26.9493 224.719 25.552C224.719 24.1547 225.081 23.0667 225.807 22.288C226.543 21.4987 227.604 21.104 228.991 21.104L241.311 21.12ZM229.343 23.328C228.724 23.328 228.255 23.552 227.935 24C227.657 24.384 227.519 24.9013 227.519 25.552C227.519 26.2027 227.657 26.72 227.935 27.104C228.244 27.552 228.713 27.776 229.343 27.776L238.639 27.744V23.344L229.343 23.328Z" fill="white"/>
<path d="M248.608 27.904H257.904V30H248.256C246.87 30 245.808 29.6107 245.072 28.832C244.347 28.0427 243.984 26.9493 243.984 25.552C243.984 24.1547 244.347 23.0667 245.072 22.288C245.808 21.4987 246.87 21.104 248.256 21.104H257.904V23.2H248.608C248.118 23.2 247.712 23.3387 247.392 23.616C247.243 23.744 247.051 24.0427 246.816 24.512L246.8 24.544H257.904V26.544H246.8L246.816 26.592C247.03 27.0507 247.222 27.3493 247.392 27.488C247.712 27.7653 248.118 27.904 248.608 27.904Z" fill="white"/>
<path d="M270.584 24.24C270.584 23.9413 270.488 23.7067 270.296 23.536C270.157 23.408 269.944 23.344 269.656 23.344L263.016 23.328V30H260.344V21.104L270.104 21.072C271.149 21.072 271.949 21.3653 272.504 21.952C273.005 22.4853 273.256 23.0987 273.256 23.792V24.72H270.584V24.24Z" fill="white"/>
<path d="M278.347 26.544C277.515 26.544 276.838 26.304 276.315 25.824C275.803 25.3333 275.547 24.672 275.547 23.84C275.547 22.7413 275.979 21.9467 276.843 21.456C277.259 21.2213 277.76 21.104 278.347 21.104H289.675V23.2H278.875C278.288 23.2 277.995 23.424 277.995 23.872C277.995 24.32 278.288 24.544 278.875 24.544L287.355 24.56C288.187 24.56 288.859 24.8053 289.371 25.296C289.894 25.7867 290.155 26.448 290.155 27.28C290.155 28.4 289.723 29.1947 288.859 29.664C288.454 29.888 287.952 30 287.355 30H275.547V27.904L286.827 27.92C287.414 27.92 287.707 27.6907 287.707 27.232C287.707 26.784 287.414 26.56 286.827 26.56L278.347 26.544Z" fill="white"/>
<rect x="0.5" y="4.5" width="290.155" height="41" stroke="#4C4CFF" stroke-dasharray="2 2"/>
<defs>
<filter id="filter0_f_94713_2248" x="123.012" y="0.5" width="43.3186" height="49" filterUnits="userSpaceOnUse" color-interpolation-filters="sRGB">
<feFlood flood-opacity="0" result="BackgroundImageFix"/>
<feBlend mode="normal" in="SourceGraphic" in2="BackgroundImageFix" result="shape"/>
<feGaussianBlur stdDeviation="2" result="effect1_foregroundBlur_94713_2248"/>
</filter>
<filter id="filter1_f_94713_2248" x="123.012" y="0.5" width="43.3186" height="49" filterUnits="userSpaceOnUse" color-interpolation-filters="sRGB">
<feFlood flood-opacity="0" result="BackgroundImageFix"/>
<feBlend mode="normal" in="SourceGraphic" in2="BackgroundImageFix" result="shape"/>
<feGaussianBlur stdDeviation="2" result="effect1_foregroundBlur_94713_2248"/>
</filter>
<filter id="filter2_f_94713_2248" x="120.581" y="20" width="48.792" height="17.013" filterUnits="userSpaceOnUse" color-interpolation-filters="sRGB">
<feFlood flood-opacity="0" result="BackgroundImageFix"/>
<feBlend mode="normal" in="SourceGraphic" in2="BackgroundImageFix" result="shape"/>
<feGaussianBlur stdDeviation="2" result="effect1_foregroundBlur_94713_2248"/>
</filter>
<filter id="filter3_f_94713_2248" x="120.581" y="20" width="48.792" height="17.013" filterUnits="userSpaceOnUse" color-interpolation-filters="sRGB">
<feFlood flood-opacity="0" result="BackgroundImageFix"/>
<feBlend mode="normal" in="SourceGraphic" in2="BackgroundImageFix" result="shape"/>
<feGaussianBlur stdDeviation="2" result="effect1_foregroundBlur_94713_2248"/>
</filter>
<filter id="filter4_f_94713_2248" x="120.5" y="14.5" width="49" height="12" filterUnits="userSpaceOnUse" color-interpolation-filters="sRGB">
<feFlood flood-opacity="0" result="BackgroundImageFix"/>
<feBlend mode="normal" in="SourceGraphic" in2="BackgroundImageFix" result="shape"/>
<feGaussianBlur stdDeviation="2" result="effect1_foregroundBlur_94713_2248"/>
</filter>
<filter id="filter5_f_94713_2248" x="120.5" y="14.5" width="49" height="12" filterUnits="userSpaceOnUse" color-interpolation-filters="sRGB">
<feFlood flood-opacity="0" result="BackgroundImageFix"/>
<feBlend mode="normal" in="SourceGraphic" in2="BackgroundImageFix" result="shape"/>
<feGaussianBlur stdDeviation="2" result="effect1_foregroundBlur_94713_2248"/>
</filter>
<filter id="filter6_f_94713_2248" x="130.885" y="2.81286" width="28.795" height="44.1871" filterUnits="userSpaceOnUse" color-interpolation-filters="sRGB">
<feFlood flood-opacity="0" result="BackgroundImageFix"/>
<feBlend mode="normal" in="SourceGraphic" in2="BackgroundImageFix" result="shape"/>
<feGaussianBlur stdDeviation="2" result="effect1_foregroundBlur_94713_2248"/>
</filter>
<filter id="filter7_f_94713_2248" x="130.885" y="2.81286" width="28.795" height="44.1871" filterUnits="userSpaceOnUse" color-interpolation-filters="sRGB">
<feFlood flood-opacity="0" result="BackgroundImageFix"/>
<feBlend mode="normal" in="SourceGraphic" in2="BackgroundImageFix" result="shape"/>
<feGaussianBlur stdDeviation="2" result="effect1_foregroundBlur_94713_2248"/>
</filter>
</defs>
</svg>
